<svg id="mama_logo_heart" width="72.215" height="80" version="1.1" viewBox="0 0 72.215 80" xmlns="http://www.w3.org/2000/svg">
 <defs>
  <style>.acgh7uehmgz3 {
        fill: none;
      }

      .p4uqccncc9hx {
        clip-path: url(#clip-path);
      }

      .f6gb6kf2ey6p {
        fill: #009fe3;
      }

      .u4bnmpuvuk3f {
        fill: #fff;
      }

      .tq2vh3qe23es {
        fill: #e6007e;
      }</style>
  <clipPath id="clip-path">
   <rect class="acgh7uehmgz3" width="159.35" height="176.47" data-name="Rechteck 287"/>
  </clipPath>
 </defs>
 <g class="p4uqccncc9hx" transform="scale(.45513)" clip-path="url(#clip-path)" data-name="mama_logo_heart">
  <g data-name="Gruppe 259">
   <path class="f6gb6kf2ey6p" transform="translate(0 -.21)" d="m120.87 0.21h-96.425a24.439 24.439 0 0 0-24.445 24.432v96.431a24.451 24.451 0 0 0 24.445 24.445h96.425a24.451 24.451 0 0 0 24.457-24.445v-96.431a24.439 24.439 0 0 0-24.445-24.432h-0.012" data-name="Pfad 36"/>
   <path class="u4bnmpuvuk3f" transform="translate(-9.024,-35.235)" d="m60.77 95.167a6.452 6.452 0 0 0-4.906-2.385c-2.59-0.075-5.366 1.95-6.415 5.316-1.478 4.434-4.223 13.266-5.316 16.955v0.037a0.789 0.789 0 0 1-1.522 0v-0.037c-1.093-3.689-3.844-12.52-5.316-16.955-1.056-3.366-3.832-5.391-6.422-5.316a6.47 6.47 0 0 0-4.906 2.385 9.677 9.677 0 0 0-2.149 6.353v21.563h6.136v-22.047a1.031 1.031 0 0 1 0.329-0.77 0.77 0.77 0 0 1 0.5-0.2 0.819 0.819 0 0 1 0.7 0.447 1.191 1.191 0 0 1 0.068 0.155v0.043c1.416 4.273 4.2 13.191 5.242 16.725s3.8 5.67 6.565 5.621c2.757 0.05 5.552-2.105 6.565-5.621s3.819-12.421 5.235-16.725a0.254 0.254 0 0 1 0-0.043 1.191 1.191 0 0 1 0.068-0.155 0.813 0.813 0 0 1 0.7-0.447 0.776 0.776 0 0 1 0.509 0.2 1.05 1.05 0 0 1 0.323 0.77v22.047h6.142v-21.563a9.643 9.643 0 0 0-2.155-6.353m21.65 5.54a0.739 0.739 0 0 0-0.043-0.106 0.788 0.788 0 0 0-0.7-0.5 0.814 0.814 0 0 0-0.733 0.565c-0.416 1.41-1.956 6.086-3.726 11.359h8.881m10.26 11.036h-6.573l-1.478-4.441h-13.235l-1.478 4.441h-6.583c2.577-7.769 7.49-22.563 8.136-24.786 0.987-3.515 3.776-5.683 6.552-5.639 2.714-0.075 5.534 2.13 6.533 5.645 0.894 2.987 5.484 16.768 8.161 24.78m43.195-21.561v21.563h-6.142v-22.046a1.031 1.031 0 0 0-0.329-0.77 0.745 0.745 0 0 0-0.5-0.2 0.813 0.813 0 0 0-0.7 0.447 1.188 1.188 0 0 0-0.068 0.155 0.1 0.1 0 0 0 0 0.043c-1.41 4.273-4.192 13.191-5.235 16.725s-3.807 5.67-6.565 5.621c-2.757 0.05-5.558-2.105-6.565-5.621s-3.826-12.421-5.242-16.725v-0.043a1.192 1.192 0 0 0-0.068-0.155 0.819 0.819 0 0 0-0.7-0.447 0.77 0.77 0 0 0-0.5 0.2 1.023 1.023 0 0 0-0.323 0.77v22.047h-6.136v-21.544a9.677 9.677 0 0 1 2.149-6.353 6.478 6.478 0 0 1 4.913-2.385c2.584-0.075 5.366 1.95 6.415 5.316 1.478 4.434 4.223 13.266 5.316 16.955v0.037a0.838 0.838 0 0 0 0.764 0.578 0.827 0.827 0 0 0 0.758-0.578q0-0.019 0-0.037c1.093-3.689 3.838-12.52 5.316-16.955 1.05-3.366 3.826-5.391 6.415-5.316a6.478 6.478 0 0 1 4.913 2.385 9.677 9.677 0 0 1 2.149 6.353" data-name="Pfad 37"/>
   <path class="tq2vh3qe23es" transform="translate(-47.989,-63.375)" d="m204.62 187.39c-1.168-9.4-9.471-19.663-20.861-19.874a26.084 26.084 0 0 0-17.737 6.993 26.083 26.083 0 0 0-17.508-7.608c-11.39-0.2-20.048 9.769-21.538 19.116-1.664 10.44 2.726 21.116 13.415 32.587a96.958 96.958 0 0 0 13.663 12.173c0.161 0.118 0.466 0.36 0.863 0.683 5.552 4.441 8.074 5.956 10.005 5.844 1.919 0.18 4.49-1.242 10.185-5.49 0.416-0.31 0.727-0.547 0.894-0.658a96.277 96.277 0 0 0 14.054-11.682c11.094-11.105 15.857-21.607 14.565-32.084z" data-name="Pfad 38"/>
   <path class="u4bnmpuvuk3f" transform="translate(-46.869,-62.256)" d="m164.16 238.03c-0.128 0-0.255 0-0.381-0.013-2.436 0.075-5.073-1.414-11.117-6.249-0.374-0.3-0.651-0.525-0.8-0.633a99.1 99.1 0 0 1-13.926-12.407c-11.1-11.914-15.643-23.076-13.882-34.122 1.6-10.005 10.82-20.663 23-20.663h0.376a27.843 27.843 0 0 1 17.517 6.968 27.824 27.824 0 0 1 17.692-6.353c12.4 0.23 21.421 11.329 22.682 21.48 1.366 11.081-3.568 22.073-15.086 33.6a98.339 98.339 0 0 1-14.318 11.9c-0.133 0.089-0.329 0.237-0.587 0.431l-0.243 0.181c-5.87 4.392-8.596 5.88-10.927 5.88zm-0.315-3.685 0.138 0.012c1.509 0.153 4.65-1.95 8.92-5.134l0.238-0.178c0.333-0.249 0.585-0.436 0.735-0.536a94.607 94.607 0 0 0 13.771-11.449c10.671-10.682 15.264-20.68 14.045-30.567-1.377-11.09-10.975-18.117-19.077-18.268a24.165 24.165 0 0 0-16.455 6.5l-1.292 1.2-1.25-1.248a24.175 24.175 0 0 0-16.278-7.073h-0.257c-8.021 0-17.665 6.651-19.407 17.576-1.571 9.857 2.663 20.013 12.946 31.049a95.426 95.426 0 0 0 13.407 11.945c0.171 0.124 0.5 0.387 0.933 0.738 4.155 3.322 7.215 5.544 8.745 5.437z" data-name="Pfad 39"/>
  </g>
 </g>
</svg>
